<svg width="236" height="50" viewBox="0 0 236 50" fill="none" xmlns="http://www.w3.org/2000/svg">
<path d="M8.99982 48.7955H-0.000177503L16.3862 2.25002H26.7953L43.2044 48.7955H34.2044L21.7726 11.7955H21.4089L8.99982 48.7955ZM9.29528 30.5455H33.8407V37.3182H9.29528V30.5455ZM60.2157 13.8864V20.25H40.1475V13.8864H60.2157ZM45.1021 5.52274H53.3294V38.2955C53.3294 39.4015 53.496 40.25 53.8294 40.8409C54.1779 41.4167 54.6324 41.8106 55.193 42.0227C55.7536 42.2349 56.3748 42.3409 57.0566 42.3409C57.5718 42.3409 58.0415 42.303 58.4657 42.2273C58.9051 42.1515 59.2385 42.0833 59.4657 42.0227L60.8521 48.4546C60.4127 48.6061 59.7839 48.7727 58.9657 48.9546C58.1627 49.1364 57.1779 49.2424 56.0112 49.2727C53.9506 49.3333 52.0945 49.0227 50.443 48.3409C48.7915 47.644 47.4809 46.5682 46.5112 45.1137C45.5566 43.6591 45.0869 41.8409 45.1021 39.6591V5.52274ZM72.0737 28.3409V48.7955H63.8464V2.25002H71.8919V19.8182H72.301C73.1191 17.8485 74.3843 16.2955 76.0964 15.1591C77.8237 14.0076 80.0207 13.4318 82.6873 13.4318C85.1116 13.4318 87.2252 13.9394 89.0282 14.9546C90.8313 15.9697 92.2252 17.4546 93.2101 19.4091C94.2101 21.3637 94.7101 23.75 94.7101 26.5682V48.7955H86.4828V27.8409C86.4828 25.4924 85.8767 23.6667 84.6646 22.3637C83.4676 21.0455 81.7858 20.3864 79.6191 20.3864C78.1646 20.3864 76.8616 20.7046 75.7101 21.3409C74.5737 21.9621 73.6797 22.8637 73.0282 24.0455C72.3919 25.2273 72.0737 26.6591 72.0737 28.3409ZM114.551 49.4773C111.051 49.4773 108.028 48.75 105.483 47.2955C102.952 45.8258 101.006 43.75 99.6419 41.0682C98.2782 38.3712 97.5964 35.197 97.5964 31.5455C97.5964 27.9546 98.2782 24.803 99.6419 22.0909C101.021 19.3637 102.945 17.2424 105.415 15.7273C107.884 14.197 110.786 13.4318 114.119 13.4318C116.271 13.4318 118.301 13.7803 120.21 14.4773C122.134 15.1591 123.831 16.2197 125.301 17.6591C126.786 19.0985 127.952 20.9318 128.801 23.1591C129.649 25.3712 130.074 28.0076 130.074 31.0682V33.5909H101.46V28.0455H122.187C122.172 26.4697 121.831 25.0682 121.165 23.8409C120.498 22.5985 119.566 21.6212 118.369 20.9091C117.187 20.197 115.809 19.8409 114.233 19.8409C112.551 19.8409 111.074 20.25 109.801 21.0682C108.528 21.8712 107.536 22.9318 106.824 24.25C106.127 25.553 105.771 26.9849 105.756 28.5455V33.3864C105.756 35.4167 106.127 37.1591 106.869 38.6137C107.612 40.053 108.649 41.1591 109.983 41.9318C111.316 42.6894 112.877 43.0682 114.665 43.0682C115.862 43.0682 116.945 42.9015 117.915 42.5682C118.884 42.2197 119.725 41.7121 120.437 41.0455C121.149 40.3788 121.687 39.553 122.051 38.5682L129.733 39.4318C129.248 41.4621 128.324 43.2349 126.96 44.75C125.612 46.25 123.884 47.4167 121.778 48.25C119.672 49.0682 117.263 49.4773 114.551 49.4773ZM141.261 2.25002V48.7955H133.034V2.25002H141.261ZM161.176 49.4773C157.676 49.4773 154.653 48.75 152.108 47.2955C149.577 45.8258 147.631 43.75 146.267 41.0682C144.903 38.3712 144.221 35.197 144.221 31.5455C144.221 27.9546 144.903 24.803 146.267 22.0909C147.646 19.3637 149.57 17.2424 152.04 15.7273C154.509 14.197 157.411 13.4318 160.744 13.4318C162.896 13.4318 164.926 13.7803 166.835 14.4773C168.759 15.1591 170.456 16.2197 171.926 17.6591C173.411 19.0985 174.577 20.9318 175.426 23.1591C176.274 25.3712 176.699 28.0076 176.699 31.0682V33.5909H148.085V28.0455H168.812C168.797 26.4697 168.456 25.0682 167.79 23.8409C167.123 22.5985 166.191 21.6212 164.994 20.9091C163.812 20.197 162.434 19.8409 160.858 19.8409C159.176 19.8409 157.699 20.25 156.426 21.0682C155.153 21.8712 154.161 22.9318 153.449 24.25C152.752 25.553 152.396 26.9849 152.381 28.5455V33.3864C152.381 35.4167 152.752 37.1591 153.494 38.6137C154.237 40.053 155.274 41.1591 156.608 41.9318C157.941 42.6894 159.502 43.0682 161.29 43.0682C162.487 43.0682 163.57 42.9015 164.54 42.5682C165.509 42.2197 166.35 41.7121 167.062 41.0455C167.774 40.3788 168.312 39.553 168.676 38.5682L176.358 39.4318C175.873 41.4621 174.949 43.2349 173.585 44.75C172.237 46.25 170.509 47.4167 168.403 48.25C166.297 49.0682 163.888 49.4773 161.176 49.4773ZM179.659 48.7955V13.8864H187.886V48.7955H179.659ZM183.795 8.93184C182.492 8.93184 181.371 8.50002 180.432 7.63638C179.492 6.75759 179.023 5.70456 179.023 4.47729C179.023 3.23486 179.492 2.18183 180.432 1.3182C181.371 0.439409 182.492 1.52588e-05 183.795 1.52588e-05C185.113 1.52588e-05 186.235 0.439409 187.159 1.3182C188.098 2.18183 188.568 3.23486 188.568 4.47729C188.568 5.70456 188.098 6.75759 187.159 7.63638C186.235 8.50002 185.113 8.93184 183.795 8.93184ZM202.392 49.5C200.18 49.5 198.187 49.1061 196.415 48.3182C194.657 47.5152 193.263 46.3333 192.233 44.7727C191.218 43.2121 190.71 41.2879 190.71 39C190.71 37.0303 191.074 35.4015 191.801 34.1137C192.528 32.8258 193.521 31.7955 194.778 31.0227C196.036 30.25 197.452 29.6667 199.028 29.2727C200.619 28.8637 202.263 28.5682 203.96 28.3864C206.006 28.1743 207.665 27.9849 208.937 27.8182C210.21 27.6364 211.134 27.3637 211.71 27C212.301 26.6212 212.596 26.0379 212.596 25.25V25.1137C212.596 23.4015 212.089 22.0758 211.074 21.1364C210.059 20.197 208.596 19.7273 206.687 19.7273C204.672 19.7273 203.074 20.1667 201.892 21.0455C200.725 21.9243 199.937 22.9621 199.528 24.1591L191.846 23.0682C192.452 20.947 193.452 19.1743 194.846 17.75C196.24 16.3106 197.945 15.2349 199.96 14.5227C201.975 13.7955 204.202 13.4318 206.642 13.4318C208.324 13.4318 209.998 13.6288 211.665 14.0227C213.331 14.4167 214.854 15.0682 216.233 15.9773C217.612 16.8712 218.718 18.0909 219.551 19.6364C220.399 21.1818 220.824 23.1137 220.824 25.4318V48.7955H212.915V44H212.642C212.142 44.9697 211.437 45.8788 210.528 46.7273C209.634 47.5606 208.506 48.2349 207.142 48.75C205.793 49.25 204.21 49.5 202.392 49.5ZM204.528 43.4546C206.18 43.4546 207.612 43.1288 208.824 42.4773C210.036 41.8106 210.968 40.9318 211.619 39.8409C212.286 38.75 212.619 37.5606 212.619 36.2727V32.1591C212.362 32.3712 211.922 32.5682 211.301 32.75C210.695 32.9318 210.013 33.0909 209.256 33.2273C208.498 33.3637 207.748 33.4849 207.006 33.5909C206.263 33.697 205.619 33.7879 205.074 33.8637C203.846 34.0303 202.748 34.303 201.778 34.6818C200.809 35.0606 200.043 35.5909 199.483 36.2727C198.922 36.9394 198.642 37.803 198.642 38.8637C198.642 40.3788 199.195 41.5227 200.301 42.2955C201.407 43.0682 202.816 43.4546 204.528 43.4546ZM230.165 49.2955C228.786 49.2955 227.604 48.8106 226.619 47.8409C225.634 46.8712 225.149 45.6894 225.165 44.2955C225.149 42.9318 225.634 41.7652 226.619 40.7955C227.604 39.8258 228.786 39.3409 230.165 39.3409C231.498 39.3409 232.657 39.8258 233.642 40.7955C234.642 41.7652 235.149 42.9318 235.165 44.2955C235.149 45.2197 234.907 46.0606 234.437 46.8182C233.983 47.5758 233.377 48.1818 232.619 48.6364C231.877 49.0758 231.059 49.2955 230.165 49.2955Z" fill="white"/>
</svg>
