<svg width="35" height="36" viewBox="0 0 35 36" fill="none" xmlns="http://www.w3.org/2000/svg">
<path d="M10.0735 23.2064C9.02143 23.2019 8.12255 22.9245 7.37681 22.3741C6.63107 21.8236 6.06067 21.0224 5.66561 19.9704C5.27055 18.9184 5.07301 17.6511 5.07301 16.1685C5.07301 14.6903 5.27055 13.4274 5.66561 12.3798C6.06511 11.3323 6.63773 10.5332 7.38347 9.98282C8.13365 9.43239 9.03031 9.15718 10.0735 9.15718C11.1166 9.15718 12.011 9.43461 12.7568 9.98948C13.5025 10.5399 14.0729 11.3389 14.468 12.3865C14.8675 13.4296 15.0672 14.6903 15.0672 16.1685C15.0672 17.6555 14.8697 18.925 14.4746 19.9771C14.0796 21.0246 13.5092 21.8259 12.7634 22.3807C12.0177 22.9312 11.121 23.2064 10.0735 23.2064ZM10.0735 21.4286C10.9968 21.4286 11.7181 20.978 12.2374 20.0769C12.7612 19.1758 13.0231 17.873 13.0231 16.1685C13.0231 15.0365 12.9033 14.0799 12.6636 13.2987C12.4283 12.513 12.0887 11.9182 11.6448 11.5142C11.2054 11.1059 10.6816 10.9017 10.0735 10.9017C9.1546 10.9017 8.43328 11.3544 7.90948 12.26C7.38569 13.1655 7.12158 14.4684 7.11714 16.1685C7.11714 17.3048 7.23477 18.2658 7.47003 19.0515C7.70973 19.8328 8.04931 20.4254 8.48876 20.8293C8.92822 21.2288 9.45645 21.4286 10.0735 21.4286ZM16.743 20.3166V18.652L22.6357 9.34362H23.9474V11.7939H23.1151L18.9003 18.4656V18.5721H26.9769V20.3166H16.743ZM23.2083 22.98V19.8106L23.2216 19.0515V9.34362H25.1725V22.98H23.2083Z" fill="black"/>
<path d="M9.05151 6.55439C8.60115 6.97711 7.98616 7.50424 7.5157 7.89987C7.3693 8.02307 7.42364 7.93878 7.32244 8.0225C7.12037 8.19013 6.95271 8.35906 6.75461 8.5232C6.6888 8.57762 6.73884 8.47503 6.67054 8.53279C6.30042 8.84627 5.9704 9.1688 5.61317 9.50477C3.84353 11.1396 2.38905 13.0588 1.66312 15.3803C1.4124 16.1378 1.16395 17.0852 1.05721 17.9117C1.04468 18.0074 1.08977 17.9561 1.09002 17.9747C1.09401 18.2677 1.03441 18.1619 0.998723 18.3514C0.861111 19.0869 0.790255 19.9247 0.771061 20.656C0.763594 20.9635 0.849755 20.6591 0.796297 20.9644C0.792714 20.9856 0.756545 20.9065 0.749208 20.9903C0.732335 21.1773 0.729407 21.5578 0.724169 21.6988C0.713236 21.982 0.713196 22.0298 0.711259 22.3054C0.710896 22.3618 0.710224 22.4201 0.709413 22.4799C0.704538 22.8104 0.701911 23.1789 0.731676 23.5144C0.739367 23.5986 0.771647 23.4846 0.787906 23.6179C0.803198 23.7515 0.834034 24.1045 0.840307 24.2241C0.845531 24.3439 0.808149 24.2975 0.803594 24.3194C0.763281 24.5016 0.914261 24.8956 0.927421 24.9458C1.13956 25.8827 1.35483 26.6809 1.73367 27.505C1.86831 27.7959 2.02292 28.0895 2.18703 28.3752C2.37705 28.7064 2.56532 29.0316 2.74446 29.3336C3.1453 30.0062 3.49661 30.569 4.01272 31.1113C4.06743 31.1679 4.03766 31.069 4.10446 31.1373C4.54834 31.5894 5.05555 31.966 5.6121 32.2651C5.9601 32.4528 6.30514 32.6482 6.64633 32.8421C6.73809 32.8943 6.59835 32.8673 6.68914 32.9217C7.23853 33.2543 8.11576 33.7832 8.53775 33.7742C8.92715 33.9623 9.40569 34.1725 9.75468 34.3394C9.97944 34.446 9.73788 34.4081 10.0322 34.4907C10.0991 34.5089 10.0268 34.4428 10.1257 34.4724C10.5395 34.5957 10.9947 34.7314 11.4121 34.7671C11.497 34.774 11.478 34.7356 11.5022 34.7321C11.5106 34.731 11.5192 34.73 11.5279 34.7293C11.742 34.7141 12.0573 34.8265 12.1293 34.8398C12.703 34.9453 13.1282 34.9664 13.6678 35.0119C13.7929 35.0223 13.6488 34.963 13.7693 34.9712C14.3947 35.0145 15.0418 35.0606 15.6535 35.1102C15.7896 35.1213 15.6624 35.156 15.7273 35.1634C16.0142 35.1948 16.0807 35.1208 16.3557 35.1466C16.4137 35.1518 16.3798 35.1854 16.3903 35.1896C16.5547 35.2546 16.701 35.1734 16.7438 35.1726C17.2834 35.1591 17.6283 35.2501 18.1503 35.2326C18.2127 35.2303 18.0716 35.1882 18.2467 35.1842C19.4137 35.1565 20.6454 35.0922 21.7916 34.9588C21.9695 34.9377 21.848 34.9892 21.8597 34.9915C22.0503 35.0271 22.1568 34.9228 22.2131 34.9101C22.6633 34.811 23.1001 34.7896 23.3798 34.6162C23.741 34.5344 24.0969 34.4359 24.4454 34.3193C25.9539 33.8089 27.4859 33.3828 28.7189 32.4231C28.7382 32.4083 28.7316 32.4685 28.7701 32.4386C29.2289 32.0665 29.0978 32.088 29.3075 31.7567C29.3587 31.6745 29.625 31.5138 29.6477 31.4959C29.7299 31.4377 29.7133 31.5552 29.7381 31.5332C29.938 31.3501 29.7517 31.2569 29.9652 30.9705C29.972 30.9618 29.9751 31.0217 29.9957 31C30.0597 30.9328 30.1035 30.8455 30.1656 30.779C30.2293 30.7108 30.2895 30.6703 30.3488 30.6194C30.4198 30.5602 30.4914 30.4823 30.5644 30.311C30.5798 30.273 30.4478 30.2634 30.6275 29.9937C30.701 29.8851 31.0009 29.4016 31.0903 29.2671C31.1795 29.135 31.1549 29.2479 31.1623 29.239C31.4287 28.8939 31.3599 29.0475 31.535 28.897C31.7082 28.7477 31.5262 28.711 31.5539 28.6248C31.5822 28.538 31.7751 28.2837 31.8249 28.2237C31.8754 28.1631 31.8487 28.2592 31.8897 28.2029C32.1599 27.8268 31.9115 27.9848 31.9602 27.8391C32.0727 27.4962 32.3167 27.3122 32.4758 27.027C32.5188 26.9498 32.4599 27.0007 32.4928 26.9293C32.6222 26.6469 32.741 26.4961 32.8555 26.1594C32.8745 26.1043 32.9204 25.813 33.045 25.6662C33.0628 25.6453 33.0635 25.7266 33.122 25.6075C33.2093 25.431 33.3487 25.1003 33.4104 24.8977C33.4564 24.7475 33.3455 24.8984 33.4274 24.7182C33.4632 24.6381 33.4393 24.8015 33.504 24.65C33.5701 24.4989 33.6929 24.098 33.731 23.943C33.7706 23.7885 33.709 23.8629 33.7097 23.8497C33.7152 23.7725 33.7633 23.4715 33.7668 23.4465C33.8312 23.1209 33.8764 22.7973 33.8819 22.4799C33.8987 21.4819 33.9456 20.5194 33.9332 19.5177C33.932 19.4132 33.889 19.4826 33.8884 19.4667C33.8719 19.109 33.9844 19.3914 34.0232 19.1416C33.9364 19.1775 33.9527 19.0299 33.9433 18.7781C33.9387 18.6565 33.9051 18.7228 33.9017 18.7116C33.8507 18.5318 33.916 18.4066 33.9294 18.374C33.9785 18.255 33.9193 18.1256 33.9518 18.0439C33.984 17.9625 34.0342 18.1486 34.0316 17.9073C33.9999 17.8395 33.9206 18.0203 33.9057 17.8365C33.8865 17.6034 33.8785 17.3005 33.8718 16.9836C33.8595 16.3709 33.7705 15.6875 33.7049 15.3266C33.6035 14.7817 33.5527 14.6116 33.4861 14.2949C33.3592 13.7258 33.3542 13.947 33.2304 13.6079C33.1023 13.268 33.2932 13.395 33.309 13.3358C33.3247 13.2774 33.2771 13.2331 33.2749 13.1667C33.2727 13.1004 33.3343 13.2263 33.2961 13.0807C33.2587 12.9348 33.076 12.5619 33.0267 12.5229C32.9233 12.4398 32.9149 12.637 32.8084 12.2566C32.8022 12.2347 32.8637 12.2912 32.8381 12.2077C32.6327 11.5466 32.3613 10.8794 32.0792 10.248C32.0402 10.1612 32.1169 10.2183 32.0944 10.1671C31.8545 9.63845 31.8842 9.85843 31.66 9.62159C31.7871 9.63072 31.7663 9.441 31.5261 9.06856C31.3787 8.84725 31.3648 8.91285 31.2376 8.7942C31.1993 8.75796 31.1108 8.59301 31.0706 8.58048C30.9825 8.5539 30.9795 8.63432 30.8991 8.56818C30.862 8.53749 30.8087 8.47749 30.7261 8.36948C30.7143 8.35382 30.7853 8.37416 30.7423 8.32198C30.4596 7.98163 30.3677 7.9919 30.0366 7.65006C29.7775 7.38199 29.3455 6.87638 29.0403 6.57944C29.1308 6.49728 28.8169 6.24119 28.639 6.19502C28.4363 6.00759 28.2079 5.81625 28.0101 5.6365C27.9421 5.57481 28.0109 5.58633 28.0044 5.57602C27.9051 5.4162 27.76 5.40389 27.7115 5.36887C27.1888 4.98895 26.8007 4.62434 26.2636 4.3143C26.2443 4.30324 26.1665 4.351 26.0679 4.20595C26.0614 4.19624 26.2509 4.28298 26.0142 4.11241C25.7792 3.94291 25.351 3.59333 24.9945 3.40028C24.9099 3.35444 24.665 3.27216 24.5303 3.11799C24.5121 3.09716 24.5498 3.09327 24.5252 3.0607C24.5101 3.04087 24.4941 3.02593 24.4775 3.01379C24.4075 2.96285 24.3282 2.9647 24.2597 2.85329C24.1753 2.71621 23.9379 2.5099 23.5468 2.37318C23.5344 2.36873 23.4181 2.38648 23.3025 2.33168C23.118 2.2434 22.8565 2.11662 22.6569 2.03899C22.5617 2.00187 22.6073 2.06482 22.5906 2.05906C21.9421 1.83499 21.4876 1.65283 20.7826 1.43591C20.6527 1.3958 20.2643 1.34965 20.0222 1.24105C19.7554 1.12205 20.0939 0.994106 19.4387 0.88149C19.1748 0.836508 18.7859 1.01096 18.3517 0.76776C17.8888 0.674185 17.4492 0.558672 17.0096 0.441355C16.5831 0.328024 16.1385 0.272487 15.6785 0.278275C15.6377 0.278664 15.5009 0.347543 15.4048 0.345987C15.2605 0.343346 15.1783 0.310612 15.0751 0.31058C14.6375 0.310897 14.2401 0.372229 13.8218 0.415859C13.6621 0.433246 13.7156 0.390916 13.5246 0.413858C13.3356 0.437461 13.2132 0.501773 12.9579 0.520534C12.7605 0.535701 12.5526 0.475923 12.2952 0.514344C12.3039 0.608089 12.1263 0.639252 11.8231 0.729234C11.7641 0.746775 11.8352 0.764783 11.8077 0.774725C11.6946 0.816198 11.5872 0.812413 11.4817 0.85512C11.4562 0.865424 11.462 0.89683 11.4416 0.907043C11.2704 0.994039 10.9508 0.998026 10.8983 0.99845C10.6915 1.00102 10.6045 1.0664 10.4518 1.08702C10.2966 1.10856 10.5158 1.02656 10.3368 1.06213C9.96424 1.13634 9.49818 1.27392 9.12997 1.38302C8.98319 1.42669 9.09554 1.43744 9.07482 1.44464C8.7723 1.54687 8.45393 1.59979 8.31377 1.73386C8.03949 1.59176 8.13507 1.81261 7.69568 1.91216C7.66066 1.92012 7.58461 1.83605 7.71 1.7782C7.8343 1.72077 8.04313 1.68628 8.21685 1.60559C8.25732 1.58655 8.47413 1.41572 8.50693 1.39945C8.75809 1.27269 8.83841 1.41099 8.85587 1.4144C9.04415 1.45259 9.31075 1.26412 9.39182 1.23317C9.74723 1.09495 10.0634 1.03021 10.3677 0.925421C10.563 0.85838 10.5603 0.754366 10.72 0.717176C11.2538 0.595366 11.4671 0.691582 11.946 0.464957C12.0476 0.417742 11.9193 0.328562 12.3253 0.338521C12.3489 0.3393 12.6553 0.363393 12.8134 0.286063C12.8336 0.276197 12.8276 0.244393 12.8552 0.237035C13.0387 0.18888 13.1691 0.194654 13.3703 0.153799C13.5739 0.112716 13.8202 0.0637433 14.055 0.0516411C14.201 0.0435174 14.3843 0.0892933 14.4554 0.0991472C14.6486 0.127548 14.8529 0.0483966 14.9737 0.0963453C15.0954 0.144927 14.8656 0.228472 15.1764 0.255547C15.1865 0.171334 15.2121 0.0847417 15.2309 5.08158e-05C15.8442 -0.00129657 16.4566 0.0612308 17.0663 0.214691C17.1463 0.235068 17.2264 0.254955 17.3066 0.274284C17.3883 0.293888 17.3156 0.229415 17.4038 0.249333C17.7754 0.333266 18.0919 0.442264 18.4803 0.522343C18.7809 0.584114 19.1197 0.616296 19.4356 0.681625C19.6038 0.821877 20.0754 0.905903 20.41 1.00442C20.5268 1.03868 20.5129 1.06161 20.5943 1.09234C20.9017 1.20867 20.7767 1.0865 20.8669 1.0976C21.255 1.14861 21.2329 1.34109 21.668 1.47233C21.6912 1.47894 22.0037 1.47331 22.045 1.48118C22.304 1.52596 22.0741 1.52853 22.2252 1.58916C22.5003 1.70154 22.6839 1.79579 23.018 1.90228C23.1156 1.93314 23.3673 1.97271 23.5264 2.10381C23.5473 2.12095 23.5196 2.14529 23.5377 2.15616C23.8644 2.35272 23.9205 2.26614 24.1317 2.34055C24.3439 2.41562 24.5962 2.66209 24.6406 2.71856C24.6481 2.72757 24.6541 2.73525 24.6588 2.74173C24.6844 2.77706 24.6723 2.7763 24.646 2.76096C24.5995 2.73345 24.5071 2.6623 24.5003 2.66198C24.4016 2.65678 24.4991 2.72353 24.6169 2.80465C24.6556 2.83131 24.6966 2.85905 24.7338 2.88554C24.6983 2.98735 24.9125 3.1234 24.8876 2.99477C24.8848 2.98065 24.762 2.91011 24.7338 2.88554C24.9236 2.88919 25.1645 3.03467 25.3694 3.28966C25.4627 3.40761 25.3229 3.37464 25.697 3.60822C25.868 3.71571 25.8431 3.611 26.0012 3.69694C26.3605 3.89206 26.7502 4.25265 27.0925 4.49533C27.2171 4.58371 27.1217 4.46311 27.2075 4.52243C27.4351 4.68013 27.6098 4.85209 27.8371 5.01374C27.8577 5.02832 27.8353 4.95773 27.9031 5.01122C28.419 5.41888 28.8362 5.81433 29.3338 6.28662C29.5756 6.51421 30.0096 6.91722 30.2418 7.17002C30.5627 7.51531 30.9036 7.95046 31.201 8.30407C31.2816 8.39971 31.3595 8.49758 31.4271 8.58171C31.638 8.85171 31.625 8.76977 31.7312 8.87507C31.9385 9.08191 32.0985 9.56221 32.1146 9.62694C32.1164 9.62976 31.9652 9.38045 32.0229 9.5261C32.0289 9.62703 32.1125 9.62375 32.1146 9.62694C32.1295 9.66811 32.3843 10.1843 32.4372 10.2842C32.4678 10.3385 32.4881 10.2903 32.5034 10.3191C32.8629 10.9985 33.1531 11.7118 33.3847 12.4514C33.3883 12.4646 33.3403 12.4592 33.3493 12.4899C33.4732 12.9204 33.6075 13.178 33.7405 13.5256C33.8727 13.8735 33.935 14.1617 33.914 14.393C33.9897 14.6615 34.0422 15.0613 34.065 15.2923C34.0876 15.5205 34.176 15.5407 34.1814 15.56C34.317 16.092 34.3342 16.4518 34.3397 16.9701C34.3397 17.0504 34.3401 17.1371 34.341 17.228C34.3448 17.5378 34.3626 18.15 34.3722 18.4839C34.3802 18.7477 34.3601 18.9067 34.3722 19.1494C34.3738 19.1823 34.4117 19.1491 34.4131 19.1592C34.4575 19.4302 34.3654 19.2998 34.3487 19.3556C34.2877 19.558 34.2551 19.683 34.2811 20.0297C34.2871 20.1095 34.4187 20.3435 34.4253 20.4891C34.4338 20.6785 34.3866 20.6068 34.3966 20.8049C34.3974 20.8217 34.4269 20.8187 34.4246 20.941C34.416 21.4334 34.3981 21.9658 34.3965 22.4799C34.3963 22.5652 34.3936 22.6511 34.3888 22.7375C34.3834 22.8244 34.438 22.7157 34.4298 22.8421C34.3868 23.4433 34.227 24.0558 34.0373 24.5733C33.99 24.7009 33.9852 24.6096 33.9668 24.6346C33.8553 24.7872 33.8489 25.0551 33.8357 25.0945C33.5205 26.0482 33.123 26.7027 32.6912 27.6118C32.6687 27.6606 32.5497 28.0777 32.3892 28.2041C32.3788 28.2123 32.2178 28.3373 32.1853 28.5058C32.1831 28.5167 32.2767 28.4357 32.1728 28.6101C32.0694 28.7835 31.9293 29.0797 31.7481 29.2937C31.6901 29.3628 31.5146 29.4995 31.4326 29.7538C31.4269 29.7724 31.3355 30.1922 31.173 30.2605C31.1458 30.2723 31.0726 30.1927 30.9474 30.4862C30.9238 30.5417 31.0031 30.463 30.9291 30.6036C30.8816 30.6936 30.8176 30.792 30.7537 30.8894C30.6577 31.0358 30.5547 31.1869 30.4716 31.3464C30.4479 31.3933 30.3685 31.6199 30.2089 31.7307C30.1843 31.7477 30.191 31.6835 30.1273 31.7556C29.824 32.098 29.5056 32.4692 29.1295 32.7597C28.9965 32.8612 29.0259 32.763 28.8817 32.8603C28.7384 32.958 28.4493 33.148 28.3102 33.2659C28.1714 33.3843 28.3887 33.3573 28.158 33.5059C27.1372 34.1474 26.0118 34.4198 24.9597 34.7682C24.8017 34.8199 24.9426 34.8067 24.7124 34.885C24.6905 34.8924 24.6682 34.9001 24.6454 34.9079C23.7543 35.2335 22.2395 35.5519 21.4596 35.571C20.8192 35.5926 21.6099 35.4561 21.1253 35.4903C20.8913 35.5062 20.6497 35.6345 20.5929 35.6428C20.0437 35.7253 19.6565 35.7011 19.1605 35.7362C19.0583 35.7432 19.1604 35.782 19.0732 35.7874C18.7744 35.8061 18.46 35.7943 18.1758 35.801C18.0479 35.8041 18.0717 35.8365 17.9537 35.8347C17.6727 35.8306 17.4234 35.8156 17.1498 35.7812C17.1249 35.7781 17.2939 35.7399 17.086 35.7353C16.7504 35.7279 16.3341 35.6863 15.9475 35.7017C15.8327 35.7063 15.8247 35.7811 15.581 35.7181C15.5299 35.7047 15.6002 35.6189 15.3098 35.6815C15.2613 35.6922 14.7734 35.7692 14.5417 35.6856C14.4806 35.6639 14.3269 35.5799 14.189 35.5814C14.1702 35.5819 14.2419 35.6273 14.1279 35.6229C13.7258 35.6065 13.3068 35.5673 12.8944 35.5418C12.7844 35.5351 12.944 35.5916 12.7801 35.5801C12.3684 35.5513 11.866 35.4916 11.4496 35.4337C11.4063 35.4278 11.3637 35.4214 11.3219 35.4145C11.147 35.3843 11.2736 35.3679 11.261 35.3624C11.0701 35.2718 10.94 35.3268 10.8717 35.3174C10.4583 35.2559 10.1691 35.1266 9.81267 35.0156C9.71469 34.9844 9.77061 35.0453 9.75011 35.0419C9.53742 35.0026 9.71031 34.9896 9.58683 34.9367C9.2412 34.7869 8.85604 34.6304 8.51122 34.4818C8.38456 34.4271 8.50749 34.532 8.39395 34.4822C7.72202 34.1872 7.04911 33.8385 6.43757 33.4874C6.32223 33.4211 6.41251 33.4293 6.39172 33.4092C6.2506 33.2715 5.96675 33.2066 5.90864 33.1838C5.63662 33.0766 5.55105 32.9957 5.32363 32.8831C5.31462 32.8787 5.30563 32.8742 5.29667 32.8698C4.0626 32.3108 2.94872 30.994 2.35824 29.96C2.08499 29.5096 1.85726 29.0878 1.638 28.6827C1.18798 27.8462 0.835472 27.0217 0.552811 26.0426C0.526345 25.9492 0.507626 26.056 0.484413 25.9754C0.187462 24.9305 0.0858186 23.862 0.0544897 22.7939C0.0520891 22.7059 0.00983051 22.8338 0.00479756 22.692C0.00246982 22.6252 0.000962538 22.5539 0.000420176 22.4799C-0.00144999 22.2338 0.00481831 21.9685 0.0193543 21.7507C0.0285655 21.6125 0.0630672 21.7984 0.0716503 21.6597C0.0920016 21.3309 0.106454 20.9724 0.114864 20.6409C0.118749 20.4937 0.0630664 20.7133 0.0718079 20.5224C0.132372 19.2423 0.253791 17.9867 0.579834 16.717C0.602575 16.6295 0.70828 16.5716 0.733295 16.3853C0.71172 16.3659 0.682422 16.3598 0.657358 16.3476C1.06117 14.5129 1.86905 12.7518 3.01942 11.2468C3.06762 11.1831 2.94552 11.2643 3.03911 11.1407C3.58299 10.4267 4.15801 9.77776 4.83106 9.17416C4.89782 9.1146 4.92628 9.20563 5.10399 9.01327C5.13401 8.97983 5.4127 8.69531 5.47382 8.61262C5.48192 8.60112 5.40245 8.62143 5.49352 8.53363C6.02741 8.02059 6.60978 7.50984 7.1716 7.04076C7.26352 6.96407 7.19723 7.08016 7.2621 7.02656C7.71988 6.6483 8.18678 6.18986 8.63304 5.83948C8.93617 5.60093 8.87708 5.75302 9.07582 5.67046C9.10361 5.6591 9.27986 5.50093 9.31749 5.52341C9.4121 5.58016 9.4047 5.74349 9.5156 5.79482C9.53905 5.80643 9.75917 5.56976 9.65795 5.74176C9.6506 5.75388 9.49216 5.92467 9.46378 5.97723C9.44382 6.01394 9.52519 5.99778 9.47744 6.06492C9.42974 6.13197 9.34043 6.16459 9.25675 6.26807C9.1706 6.37402 9.24648 6.37123 9.05151 6.55439ZM34.1339 16.3333C34.1154 16.5498 34.2671 16.5675 34.208 16.3396C34.2048 16.3285 34.1347 16.322 34.1339 16.3333ZM16.5979 0.237404C16.863 0.348112 17.0732 0.30393 16.8867 0.208433C16.6983 0.116054 16.5155 0.20455 16.5979 0.237404ZM13.7196 0.295787C14.047 0.310082 14.0772 0.0939085 13.733 0.176137C13.7134 0.180917 13.7007 0.295046 13.7196 0.295787ZM8.39305 6.31327C8.3964 6.31296 8.52279 6.20227 8.52458 6.19799C8.55948 6.10292 8.30675 6.32434 8.39305 6.31327ZM10.9427 0.87508C11.049 0.878109 11.3212 0.779775 11.1921 0.773654C11.0881 0.768408 10.8127 0.8703 10.9427 0.87508ZM32.5449 27.0521C32.5415 27.0542 32.4844 27.1618 32.4967 27.1654C32.5366 27.1766 32.6034 27.0198 32.5449 27.0521ZM6.35003 2.29522C7.02335 2.06226 7.48358 2.09084 6.75094 2.32556C6.618 2.36865 7.01601 2.17299 6.84337 2.217C6.52479 2.29869 6.3622 2.474 6.02651 2.53419C5.96601 2.54468 6.31251 2.30748 6.35112 2.29456C6.35076 2.29478 6.35039 2.295 6.35003 2.29522ZM33.9678 16.4732C33.9665 16.4761 33.9795 16.6467 33.9813 16.6501C34.0365 16.7384 34.0109 16.3961 33.9678 16.4732ZM28.3933 32.7287C28.3845 32.7332 28.0624 32.947 28.0526 32.9546C27.9249 33.1346 28.5858 32.6985 28.3933 32.7287ZM29.0376 6.57248C28.8722 6.48123 28.7081 6.33784 28.6396 6.19562C28.7728 6.31991 28.907 6.44463 29.0376 6.57248Z" fill="black"/>
</svg>
